{
  "accessors": [
    {
      "bufferView": 2,
      "componentType": 5126,
      "count": 593,
      "max": [
        -8.3260917663574219,
        8.9555320739746094,
        0.022237777709960938
      ],
      "min": [
        -18.750333786010742,
        -0.093944072723388672,
        -10.599103927612305
      ],
      "type": "VEC3"
    },
    {
      "bufferView": 2,
      "byteOffset": 7116,
      "componentType": 5126,
      "count": 593,
      "max": [
        0.99936693906784058,
        0.99859166145324707,
        0.99951499700546265
      ],
      "min": [
        -0.99937593936920166,
        -0.99910908937454224,
        -0.99952948093414307
      ],
      "type": "VEC3"
    },
    {
      "bufferView": 3,
      "componentType": 5126,
      "count": 593,
      "max": [
        0.99996644258499146,
        0.589152991771698,
        0.99995356798171997,
        1
      ],
      "min": [
        -0.99999278783798218,
        -0.67196577787399292,
        -0.99998009204864502,
        1
      ],
      "type": "VEC4"
    },
    {
      "bufferView": 1,
      "componentType": 5126,
      "count": 593,
      "max": [
        0.98999994993209839,
        0.99000000953674316
      ],
      "min": [
        0.0099999997764825821,
        0.14205271005630493
      ],
      "type": "VEC2"
    },
    {
      "bufferView": 0,
      "componentType": 5125,
      "count": 3072,
      "max": [
        592
      ],
      "min": [
        0
      ],
      "type": "SCALAR"
    },
    {
      "bufferView": 2,
      "byteOffset": 14232,
      "componentType": 5126,
      "count": 180,
      "max": [
        -13.24754524230957,
        9.5989465713500977,
        -3.5991883277893066
      ],
      "min": [
        -13.843142509460449,
        7.4980435371398926,
        -5.3595266342163086
      ],
      "type": "VEC3"
    },
    {
      "bufferView": 2,
      "byteOffset": 16392,
      "componentType": 5126,
      "count": 180,
      "max": [
        0.99603408575057983,
        0.98078364133834839,
        0.99710261821746826
      ],
      "min": [
        -0.99759441614151001,
        -0.89728814363479614,
        -0.95609158277511597
      ],
      "type": "VEC3"
    },
    {
      "bufferView": 3,
      "byteOffset": 9488,
      "componentType": 5126,
      "count": 180,
      "max": [
        0.98408561944961548,
        0.9529462456703186,
        0.97141605615615845,
        1
      ],
      "min": [
        -0.98950397968292236,
        -0.99981635808944702,
        -0.83893662691116333,
        -1
      ],
      "type": "VEC4"
    },
    {
      "bufferView": 1,
      "byteOffset": 4744,
      "componentType": 5126,
      "count": 180,
      "max": [
        0.26237645745277405,
        0.97493577003479004
      ],
      "min": [
        0.0099999997764825821,
        0.31023997068405151
      ],
      "type": "VEC2"
    },
    {
      "bufferView": 0,
      "byteOffset": 12288,
      "componentType": 5125,
      "count": 960,
      "max": [
        179
      ],
      "min": [
        0
      ],
      "type": "SCALAR"
    },
    {
      "bufferView": 4,
      "componentType": 5126,
      "count": 1,
      "max": [
        0
      ],
      "min": [
        0
      ],
      "type": "SCALAR"
    },
    {
      "bufferView": 5,
      "componentType": 5126,
      "count": 1,
      "max": [
        6.6579026736235392e-08,
        0,
        0,
        1
      ],
      "min": [
        6.6579026736235392e-08,
        0,
        0,
        1
      ],
      "type": "VEC4"
    },
    {
      "bufferView": 4,
      "byteOffset": 4,
      "componentType": 5126,
      "count": 1,
      "max": [
        0
      ],
      "min": [
        0
      ],
      "type": "SCALAR"
    },
    {
      "bufferView": 5,
      "byteOffset": 16,
      "componentType": 5126,
      "count": 1,
      "max": [
        6.6579026736235392e-08,
        0,
        0,
        1
      ],
      "min": [
        6.6579026736235392e-08,
        0,
        0,
        1
      ],
      "type": "VEC4"
    }
  ],
  "animations": [
    {
      "channels": [
        {
          "sampler": 0,
          "target": {
            "node": 5,
            "path": "rotation"
          }
        },
        {
          "sampler": 1,
          "target": {
            "node": 7,
            "path": "rotation"
          }
        }
      ],
      "name": "Take 001",
      "samplers": [
        {
          "input": 10,
          "interpolation": "LINEAR",
          "output": 11
        },
        {
          "input": 12,
          "interpolation": "LINEAR",
          "output": 13
        }
      ]
    }
  ],
  "asset": {
    "extras": {
      "author": "cedricmahot (https://sketchfab.com/cedricmahot)",
      "license": "CC-BY-4.0 (http://creativecommons.org/licenses/by/4.0/)",
      "source": "https://sketchfab.com/models/b496adbf9b924ff99939ad38330eb3cf",
      "title": "Apple FBX"
    },
    "generator": "Sketchfab-3.22.3",
    "version": "2.0"
  },
  "bufferViews": [
    {
      "buffer": 0,
      "byteLength": 16128,
      "byteOffset": 0,
      "name": "floatBufferViews",
      "target": 34963
    },
    {
      "buffer": 0,
      "byteLength": 6184,
      "byteOffset": 16128,
      "byteStride": 8,
      "name": "floatBufferViews",
      "target": 34962
    },
    {
      "buffer": 0,
      "byteLength": 18552,
      "byteOffset": 22312,
      "byteStride": 12,
      "name": "floatBufferViews",
      "target": 34962
    },
    {
      "buffer": 0,
      "byteLength": 12368,
      "byteOffset": 40864,
      "byteStride": 16,
      "name": "floatBufferViews",
      "target": 34962
    },
    {
      "buffer": 0,
      "byteLength": 8,
      "byteOffset": 53232,
      "name": "floatBufferViews"
    },
    {
      "buffer": 0,
      "byteLength": 32,
      "byteOffset": 53240,
      "byteStride": 16,
      "name": "floatBufferViews"
    }
  ],
  "buffers": [
    {
      "byteLength": 53272,
      "uri": "scene.bin"
    }
  ],
  "images": [
    {
      "uri": "textures/Material_25_baseColor.jpeg"
    },
    {
      "uri": "textures/Material_25_metallicRoughness.png"
    }
  ],
  "materials": [
    {
      "doubleSided": true,
      "emissiveFactor": [
        0,
        0,
        0
      ],
      "name": "Material_25",
      "pbrMetallicRoughness": {
        "baseColorFactor": [
          1,
          1,
          1,
          1
        ],
        "baseColorTexture": {
          "index": 0,
          "texCoord": 0
        },
        "metallicFactor": 0,
        "metallicRoughnessTexture": {
          "index": 1,
          "texCoord": 0
        },
        "roughnessFactor": 1
      }
    }
  ],
  "meshes": [
    {
      "name": "Sphere07_Material #25_0",
      "primitives": [
        {
          "attributes": {
            "NORMAL": 1,
            "POSITION": 0,
            "TANGENT": 2,
            "TEXCOORD_0": 3
          },
          "indices": 4,
          "material": 0,
          "mode": 4
        }
      ]
    },
    {
      "name": "Cylinder05_Material #25_0",
      "primitives": [
        {
          "attributes": {
            "NORMAL": 6,
            "POSITION": 5,
            "TANGENT": 7,
            "TEXCOORD_0": 8
          },
          "indices": 9,
          "material": 0,
          "mode": 4
        }
      ]
    }
  ],
  "nodes": [
    {
      "children": [
        1
      ],
      "name": "RootNode (gltf orientation matrix)",
      "rotation": [
        -0.70710678118654746,
        -0,
        -0,
        0.70710678118654757
      ]
    },
    {
      "children": [
        2
      ],
      "name": "RootNode (model correction matrix)"
    },
    {
      "children": [
        3
      ],
      "matrix": [
        1,
        0,
        0,
        0,
        0,
        0,
        1,
        0,
        0,
        -1,
        0,
        0,
        0,
        0,
        0,
        1
      ],
      "name": "9e90dc251b804b5abec43536bb0cddcb.fbx"
    },
    {
      "children": [
        4
      ],
      "name": ""
    },
    {
      "children": [
        5,
        7
      ],
      "name": "RootNode"
    },
    {
      "children": [
        6
      ],
      "name": "Sphere07",
      "rotation": [
        8.1460342471473268e-08,
        0,
        0,
        1
      ],
      "translation": [
        3.858856201171875,
        0,
        -4.2347927093505859
      ]
    },
    {
      "mesh": 0,
      "name": "Sphere07_Material #25_0"
    },
    {
      "children": [
        8
      ],
      "name": "Cylinder05",
      "rotation": [
        8.1460342471473268e-08,
        0,
        0,
        1
      ],
      "translation": [
        3.858856201171875,
        0,
        -4.2347927093505859
      ]
    },
    {
      "mesh": 1,
      "name": "Cylinder05_Material #25_0"
    }
  ],
  "samplers": [
    {
      "magFilter": 9729,
      "minFilter": 9987,
      "wrapS": 10497,
      "wrapT": 10497
    }
  ],
  "scene": 0,
  "scenes": [
    {
      "name": "OSG_Scene",
      "nodes": [
        0
      ]
    }
  ],
  "textures": [
    {
      "sampler": 0,
      "source": 0
    },
    {
      "sampler": 0,
      "source": 1
    }
  ]
}

